<?xml version="1.0" encoding="utf-8"?>
<!-- Generator: Adobe Illustrator 23.0.0, SVG Export Plug-In . SVG Version: 6.00 Build 0)  -->
<svg version="1.1" id="Capa_1" xmlns="http://www.w3.org/2000/svg" xmlns:xlink="http://www.w3.org/1999/xlink" x="0px" y="0px"
	 viewBox="0 0 1096 780" style="enable-background:new 0 0 1096 780;" xml:space="preserve">
<style type="text/css">
	.st0{opacity:0.15;}
	.st1{fill:#FFFFFF;}
	.st2{fill:url(#SVGID_1_);}
	.st3{fill:none;stroke:#FFFFFF;stroke-width:5;stroke-miterlimit:10;}
	.st4{fill:#A1BC31;}
	.st5{fill:#BE0411;}
	.st6{font-family:'ProximaNova-Regular';}
	.st7{font-size:55.9117px;}
	.st8{font-size:24.1015px;}
</style>
<rect width="1096" height="780"/>
<g class="st0">
	<rect y="37.71" class="st1" width="1096" height="15.09"/>
	<rect y="64.23" class="st1" width="1096" height="15.09"/>
	<rect y="90.75" class="st1" width="1096" height="15.09"/>
	<rect y="117.27" class="st1" width="1096" height="15.09"/>
	<rect y="143.79" class="st1" width="1096" height="15.09"/>
	<rect y="170.3" class="st1" width="1096" height="15.09"/>
	<rect y="196.82" class="st1" width="1096" height="15.09"/>
	<rect y="223.34" class="st1" width="1096" height="15.09"/>
	<rect y="249.86" class="st1" width="1096" height="15.09"/>
	<rect y="276.38" class="st1" width="1096" height="15.09"/>
	<rect y="302.9" class="st1" width="1096" height="15.09"/>
	<rect y="329.42" class="st1" width="1096" height="15.09"/>
	<rect y="355.94" class="st1" width="1096" height="15.09"/>
	<rect y="382.45" class="st1" width="1096" height="15.09"/>
	<rect y="408.97" class="st1" width="1096" height="15.09"/>
	<rect y="435.49" class="st1" width="1096" height="15.09"/>
	<rect y="462.01" class="st1" width="1096" height="15.09"/>
	<rect y="488.53" class="st1" width="1096" height="15.09"/>
	<rect y="515.05" class="st1" width="1096" height="15.09"/>
	<rect y="541.57" class="st1" width="1096" height="15.09"/>
	<rect y="568.09" class="st1" width="1096" height="15.09"/>
	<rect y="594.61" class="st1" width="1096" height="15.09"/>
	<rect y="621.12" class="st1" width="1096" height="15.09"/>
	<rect y="647.64" class="st1" width="1096" height="15.09"/>
	<rect y="674.16" class="st1" width="1096" height="15.09"/>
	<rect y="700.68" class="st1" width="1096" height="15.09"/>
	<rect y="727.2" class="st1" width="1096" height="15.09"/>
</g>
<radialGradient id="SVGID_1_" cx="548" cy="390" r="691.5577" gradientTransform="matrix(1 0 0 0.6375 0 141.364)" gradientUnits="userSpaceOnUse">
	<stop  offset="0.2451" style="stop-color:#000000;stop-opacity:0"/>
	<stop  offset="1" style="stop-color:#000000"/>
</radialGradient>
<rect class="st2" width="1096" height="780"/>
<path class="st3" d="M40,248.11V100c0-33.14,26.86-60,60-60h148.11"/>
<path class="st3" d="M1056,248.11V100c0-33.14-26.86-60-60-60H847.89"/>
<path class="st3" d="M40,531.89V680c0,33.14,26.86,60,60,60h148.11"/>
<path class="st3" d="M1056,531.89V680c0,33.14-26.86,60-60,60H847.89"/>
<path class="st3" d="M426,375.92v-44.98c0-13.81,11.19-25,25-25h44.98"/>
<path class="st3" d="M670,375.92v-44.98c0-13.81-11.19-25-25-25h-44.98"/>
<path class="st3" d="M426,408.08v40.98c0,13.81,11.19,25,25,25h40.98"/>
<path class="st3" d="M670,404.08v44.98c0,13.81-11.19,25-25,25h-44.98"/>
<g>
	<path class="st3" d="M158.85,115.3H85.67V97.84c0-8.71,7.06-15.77,15.77-15.77h57.41V115.3z"/>
	<path class="st4" d="M104.4,108.26H93.97V97.71c0-4.61,3.74-8.34,8.34-8.34h2.09V108.26z"/>
	<rect x="158.85" y="91.54" class="st3" width="9.65" height="14.29"/>
</g>
<g>
	<circle class="st5" cx="867.05" cy="98.86" r="19.15"/>
	<text transform="matrix(1 0 0 1 909.8252 117.5215)" class="st1 st6 st7">REC</text>
</g>
<g>
	<circle class="st5" cx="867.05" cy="98.86" r="19.15"/>
	<text transform="matrix(1 0 0 1 909.8252 117.5215)" class="st1 st6 st7">REC</text>
</g>
<rect x="109.37" y="89.37" class="st4" width="10.43" height="18.9"/>
<rect x="124.81" y="89.37" class="st4" width="10.43" height="18.9"/>
<rect x="140.25" y="89.37" class="st4" width="10.43" height="18.9"/>
<text transform="matrix(1 0 0 1 851.8945 677.2783)" class="st1 st6 st8">C1</text>
<text transform="matrix(1 0 0 1 851.8945 699.831)" class="st1 st6 st8">C2</text>
<rect x="887.33" y="665.67" class="st1" width="7.33" height="7.33"/>
<rect x="899.77" y="665.67" class="st1" width="7.33" height="7.33"/>
<rect x="912.22" y="665.67" class="st1" width="7.33" height="7.33"/>
<rect x="924.66" y="665.67" class="st1" width="7.33" height="7.33"/>
<g>
	<path class="st1" d="M943.43,666.67V672h-5.33v-5.33H943.43 M944.43,665.67h-7.33V673h7.33V665.67L944.43,665.67z"/>
</g>
<g>
	<path class="st1" d="M955.87,666.67V672h-5.33v-5.33H955.87 M956.87,665.67h-7.33V673h7.33V665.67L956.87,665.67z"/>
</g>
<rect x="887.33" y="687.58" class="st1" width="7.33" height="7.33"/>
<rect x="899.77" y="687.58" class="st1" width="7.33" height="7.33"/>
<rect x="912.22" y="687.58" class="st1" width="7.33" height="7.33"/>
<rect x="924.66" y="687.58" class="st1" width="7.33" height="7.33"/>
<rect x="937.1" y="687.58" class="st1" width="7.33" height="7.33"/>
<g>
	<path class="st1" d="M955.87,666.67V672h-5.33v-5.33H955.87 M956.87,665.67h-7.33V673h7.33V665.67L956.87,665.67z"/>
</g>
<rect x="949.54" y="687.58" class="st1" width="7.33" height="7.33"/>
<g>
	<path class="st1" d="M968.32,666.67V672h-5.33v-5.33H968.32 M969.32,665.67h-7.33V673h7.33V665.67L969.32,665.67z"/>
</g>
<rect x="961.98" y="687.58" class="st1" width="7.33" height="7.33"/>
<g>
	<path class="st1" d="M980.76,666.67V672h-5.33v-5.33H980.76 M981.76,665.67h-7.33V673h7.33V665.67L981.76,665.67z"/>
</g>
<rect x="974.42" y="687.58" class="st1" width="7.33" height="7.33"/>
<g>
	<path class="st1" d="M993.2,666.67V672h-5.33v-5.33H993.2 M994.2,665.67h-7.33V673h7.33V665.67L994.2,665.67z"/>
</g>
<rect x="986.86" y="687.58" class="st1" width="7.33" height="7.33"/>
<g>
	<path class="st1" d="M1005.64,666.67V672h-5.33v-5.33H1005.64 M1006.64,665.67h-7.33V673h7.33V665.67L1006.64,665.67z"/>
</g>
<g>
	<path class="st1" d="M1005.64,688.58v5.33h-5.33v-5.33H1005.64 M1006.64,687.58h-7.33v7.33h7.33V687.58L1006.64,687.58z"/>
</g>
<rect x="949.54" y="687.58" class="st1" width="7.33" height="7.33"/>
<text transform="matrix(1 0 0 1 84.6664 699.8309)" class="st1 st6 st7">00:09:08:76</text>
<line class="st3" x1="566.97" y1="390" x2="529.03" y2="390"/>
<line class="st3" x1="548" y1="408.97" x2="548" y2="371.03"/>
</svg>
